<svg width="100" height="26" viewBox="0 0 100 26" fill="none" xmlns="http://www.w3.org/2000/svg">
<path d="M14.2873 9.54485L8.36162 25.045H0L6.17257 8.9341C6.55882 7.95368 7.03635 7.01174 7.59887 6.12071C8.19752 5.15962 8.91608 4.27867 9.73722 3.49913C10.5795 2.69767 11.5477 2.03996 12.6031 1.55224C13.7393 1.03636 14.9751 0.776669 16.2228 0.791561H33.5259L30.8672 7.73025H17.0319C16.7552 7.73366 16.4813 7.78591 16.2228 7.88459C15.9392 7.98912 15.6679 8.12442 15.4138 8.28808C15.1648 8.45057 14.9381 8.64476 14.7392 8.86575C14.556 9.06862 14.4037 9.29746 14.2873 9.54485ZM15.7533 9.50737H27.0513L24.3927 16.3667H13.1013L15.7533 9.50737ZM35.2983 25.045H26.9366L36.2242 0.791561H49.7796L49.1623 11.3528L40.2231 24.033L40.6926 10.9339L35.2983 25.045ZM49.2483 25.045H40.9616L58.2249 0.791561H71.7892L62.5039 25.045H54.1422L59.5366 10.9339L49.2483 25.045ZM93.7194 17.22C93.3321 18.1717 92.8614 19.0873 92.313 19.9562C91.7299 20.8888 91.0232 21.738 90.2121 22.4808C89.3808 23.2457 88.4308 23.8705 87.3991 24.3306C86.2823 24.8199 85.0734 25.0635 83.8543 25.045H66.5888L69.2496 18.1063H83.8543C84.1629 18.1146 84.4678 18.0383 84.7361 17.8858C84.9927 17.7308 85.1946 17.4996 85.3137 17.2244L91.5987 0.791561H100L93.7194 17.22ZM83.0828 0.791561L80.1155 8.6166C79.9105 9.18105 80.1662 9.46547 80.8871 9.46547H86.859L84.2401 16.3248H75.4222C74.1112 16.3248 73.1089 16.0933 72.4152 15.6303C71.7508 15.2082 71.2536 14.5683 71.0088 13.8201C70.7595 13.0159 70.6932 12.1661 70.8148 11.333C70.9371 10.401 71.1771 9.48823 71.529 8.6166L74.4897 0.791561H83.0828Z" fill="white"/>
</svg>
