<svg width="20" height="25" viewBox="0 0 20 25" fill="none" xmlns="http://www.w3.org/2000/svg">
<path d="M11.25 15H6.25C5.91848 15 5.60054 15.1317 5.36612 15.3661C5.1317 15.6005 5 15.9185 5 16.25C5 16.5815 5.1317 16.8995 5.36612 17.1339C5.60054 17.3683 5.91848 17.5 6.25 17.5H11.25C11.5815 17.5 11.8995 17.3683 12.1339 17.1339C12.3683 16.8995 12.5 16.5815 12.5 16.25C12.5 15.9185 12.3683 15.6005 12.1339 15.3661C11.8995 15.1317 11.5815 15 11.25 15ZM16.25 2.5H14.775C14.5171 1.77056 14.0399 1.13875 13.4088 0.691173C12.7778 0.243598 12.0237 0.00217439 11.25 0H8.75C7.97632 0.00217439 7.22225 0.243598 6.59117 0.691173C5.96009 1.13875 5.48289 1.77056 5.225 2.5H3.75C2.75544 2.5 1.80161 2.89509 1.09835 3.59835C0.395088 4.30161 0 5.25544 0 6.25V21.25C0 22.2446 0.395088 23.1984 1.09835 23.9017C1.80161 24.6049 2.75544 25 3.75 25H16.25C17.2446 25 18.1984 24.6049 18.9017 23.9017C19.6049 23.1984 20 22.2446 20 21.25V6.25C20 5.25544 19.6049 4.30161 18.9017 3.59835C18.1984 2.89509 17.2446 2.5 16.25 2.5ZM7.5 3.75C7.5 3.41848 7.6317 3.10054 7.86612 2.86612C8.10054 2.6317 8.41848 2.5 8.75 2.5H11.25C11.5815 2.5 11.8995 2.6317 12.1339 2.86612C12.3683 3.10054 12.5 3.41848 12.5 3.75V5H7.5V3.75ZM17.5 21.25C17.5 21.5815 17.3683 21.8995 17.1339 22.1339C16.8995 22.3683 16.5815 22.5 16.25 22.5H3.75C3.41848 22.5 3.10054 22.3683 2.86612 22.1339C2.6317 21.8995 2.5 21.5815 2.5 21.25V6.25C2.5 5.91848 2.6317 5.60054 2.86612 5.36612C3.10054 5.1317 3.41848 5 3.75 5H5V6.25C5 6.58152 5.1317 6.89946 5.36612 7.13388C5.60054 7.3683 5.91848 7.5 6.25 7.5H13.75C14.0815 7.5 14.3995 7.3683 14.6339 7.13388C14.8683 6.89946 15 6.58152 15 6.25V5H16.25C16.5815 5 16.8995 5.1317 17.1339 5.36612C17.3683 5.60054 17.5 5.91848 17.5 6.25V21.25ZM13.75 10H6.25C5.91848 10 5.60054 10.1317 5.36612 10.3661C5.1317 10.6005 5 10.9185 5 11.25C5 11.5815 5.1317 11.8995 5.36612 12.1339C5.60054 12.3683 5.91848 12.5 6.25 12.5H13.75C14.0815 12.5 14.3995 12.3683 14.6339 12.1339C14.8683 11.8995 15 11.5815 15 11.25C15 10.9185 14.8683 10.6005 14.6339 10.3661C14.3995 10.1317 14.0815 10 13.75 10Z" fill="white"/>
</svg>
